# Blender v2.76 (sub 0) OBJ File: ''
# www.blender.org
mtllib cuboDIM3.mtl
o Cube
v 35.546097 -10.885000 -15.339992
v 35.752647 -10.885000 15.339993
v -33.866322 -10.885000 15.339990
v -33.383617 -10.885000 -15.339998
v 31.932198 10.885000 -15.339984
v 31.761208 10.885000 15.340002
v -30.721766 10.885000 15.339987
v -30.800022 10.885000 -15.339993
vn 0.000000 -1.000000 -0.000000
vn 0.000000 1.000000 0.000000
vn 0.985100 0.172100 -0.000600
vn -0.000000 -0.000000 1.000000
vn -0.991400 0.130400 -0.006500
vn 0.000000 0.000000 -1.000000
usemtl Material
s off
f 1//1 2//1 3//1 4//1
f 5//2 8//2 7//2 6//2
f 1//3 5//3 6//3 2//3
f 2//4 6//4 7//4 3//4
f 3//5 7//5 8//5 4//5
f 5//6 1//6 4//6 8//6
