# Blender v2.76 (sub 0) OBJ File: ''
# www.blender.org
mtllib untitled.mtl
o Cube
v 2.879155 -1.000000 -1.000000
v 2.895885 -1.000000 1.000000
v -2.743097 -1.000000 1.000000
v -2.703999 -1.000000 -1.000000
v 2.586437 1.000000 -0.999999
v 2.572587 1.000000 1.000001
v -2.488395 1.000000 1.000000
v -2.494733 1.000000 -1.000000
vn 0.000000 -1.000000 0.000000
vn 0.000000 1.000000 0.000000
vn 0.988300 0.152200 -0.000700
vn -0.000000 -0.000000 1.000000
vn -0.993300 0.115200 -0.008100
vn 0.000000 0.000000 -1.000000
usemtl Material
s off
f 1//1 2//1 3//1 4//1
f 5//2 8//2 7//2 6//2
f 1//3 5//3 6//3 2//3
f 2//4 6//4 7//4 3//4
f 3//5 7//5 8//5 4//5
f 5//6 1//6 4//6 8//6
