# Blender v2.76 (sub 0) OBJ File: ''
# www.blender.org
mtllib cuboDIM2.mtl
o Cube
v 10.114081 -3.910000 -5.474997
v 10.172853 -3.910000 5.474998
v -9.636128 -3.910000 5.474997
v -9.498782 -3.910000 -5.474999
v 9.085804 3.910000 -5.474995
v 9.037151 3.910000 5.475001
v -8.741394 3.910000 5.474996
v -8.763661 3.910000 -5.474998
vn 0.000000 -1.000000 -0.000000
vn 0.000000 1.000000 -0.000000
vn 0.990600 0.137100 -0.000500
vn -0.000000 -0.000000 1.000000
vn -0.994600 0.103600 -0.005200
vn 0.000000 0.000000 -1.000000
usemtl Material
s off
f 1//1 2//1 3//1 4//1
f 5//2 8//2 7//2 6//2
f 1//3 5//3 6//3 2//3
f 2//4 6//4 7//4 3//4
f 3//5 7//5 8//5 4//5
f 5//6 1//6 4//6 8//6
